<?xml version="1.0" encoding="utf-8"?>
<!-- License: MIT. Made by Kenan Gundogan: https://github.com/kenangundogan/fontisto -->
<svg fill="#000000" width="800px" height="800px" viewBox="0 0 34 32" xmlns="http://www.w3.org/2000/svg">
<path xmlns="http://www.w3.org/2000/svg" fill="currentColor" d="M18.298 0.884c-0.182-0.516-0.666-0.88-1.235-0.88s-1.053 0.363-1.232 0.871l-0.003 0.009-3.138 9.482c-0.179 0.516-0.661 0.881-1.228 0.881-0.003 0-0.005 0-0.008-0h-10.153c-0.009-0-0.020-0-0.030-0-0.702 0-1.272 0.569-1.272 1.272 0 0.428 0.211 0.806 0.535 1.037l0.004 0.003 8.214 5.86c0.325 0.231 0.534 0.607 0.534 1.031 0 0.14-0.023 0.274-0.065 0.4l0.003-0.009-3.138 9.482c-0.037 0.115-0.058 0.247-0.058 0.383 0 0.714 0.579 1.293 1.293 1.293 0.288 0 0.554-0.094 0.769-0.253l-0.004 0.002 8.214-5.86c0.212-0.152 0.477-0.244 0.763-0.244s0.551 0.091 0.767 0.246l-0.004-0.003 8.209 5.86c0.21 0.155 0.475 0.247 0.761 0.247 0.714 0 1.293-0.579 1.293-1.293 0-0.134-0.020-0.264-0.058-0.385l0.002 0.009-3.135-9.485c-0.039-0.117-0.062-0.251-0.062-0.391 0-0.424 0.209-0.799 0.53-1.028l0.004-0.003 8.214-5.86c0.328-0.233 0.539-0.611 0.539-1.039 0-0.702-0.569-1.272-1.272-1.272-0.011 0-0.021 0-0.032 0l0.002-0h-10.153c-0.002 0-0.005 0-0.007 0-0.567 0-1.049-0.364-1.225-0.872l-0.003-0.009z"/>
</svg>